# xmcd
#
# Track frame offsets:
# 150
# 20066
# 38525
# 54677
# 68702
# 81815
# 95337
# 105582
# 115632
# 125344
# 141080
# 155738
# 167191
# 188944
# 203057
# 218712
# 232374
# 253157
# 273006
# 287333
# 301337
# 319597
#
# Disc length: 4328 seconds
#
#
# Revision: 0
# Processed by: cddbd v1.4PL0 Copyright (c) Steve Scherf et al.
# Submitted via: FreeRIP 2.35 
#
DISCID=3610e616
DTITLE=Johnny Cash - "Unchained melodies"
DYEAR=1997
DGENRE=Country
TTITLE0=Johnny Cash - Live At Dusseldorf Germany - Folsom Prison Blues
TTITLE1=Johnny Cash - Live At Dusseldorf Germany - Bury Me Not
TTITLE2=Johnny Cash - Live At Dusseldorf Germany - Over The Next Hill You'll Be Home
TTITLE3=Johnny Cash - Live At Dusseldorf Germany - Country Boy
TTITLE4=Johnny Cash - Live At Dusseldorf Germany - Unchained
TTITLE5=Johnny Cash - Live At Dusseldorf Germany - Ring Of Fire
TTITLE6=Johnny Cash - Live At Dusseldorf Germany - Band Introduction
TTITLE7=Johnny Cash - Live At Dusseldorf Germany - I Walk The Line
TTITLE8=Johnny Cash - Live At Dusseldorf Germany - Guess Things Happen That Way
TTITLE9=Johnny Cash - Live At Dusseldorf Germany - I Still Miss Someone
TTITLE10=Johnny Cash - Live At Dusseldorf Germany - Rusty Cage
TTITLE11=Johnny Cash - Live At Dusseldorf Germany - Big River
TTITLE12=Johnny Cash - Live At Dusseldorf Germany - Orange Blossom Special
TTITLE13=Johnny Cash - Live At Dusseldorf Germany - Jackson (with June Carter-Cash)
TTITLE14=Johnny Cash - Live At Dusseldorf Germany - If I Were A Carpenter (with June Carter Cash)
TTITLE15=Johnny Cash - Live At Dusseldorf Germany - Shadow Water (with June Carter-Cash)
TTITLE16=Johnny Cash - Live At Dusseldorf Germany - Sunday Morning Coming Down
TTITLE17=Johnny Cash - Live At Dusseldorf Germany - The Wall
TTITLE18=Johnny Cash - Live At Dusseldorf Germany - Ballad Of Ira Hayes
TTITLE19=Johnny Cash - Live At Dusseldorf Germany - Daddy Sang Bass (with June and John Carter-Cash)
TTITLE20=Johnny Cash - Live At Dusseldorf Germany - Southern Accents
TTITLE21=Johnny Cash - Live At Dusseldorf Germany - Instrumental Outro
EXTD=
EXTT0=
EXTT1=
EXTT2=
EXTT3=
EXTT4=
EXTT5=
EXTT6=
EXTT7=
EXTT8=
EXTT9=
EXTT10=
EXTT11=
EXTT12=
EXTT13=
EXTT14=
EXTT15=
EXTT16=
EXTT17=
EXTT18=
EXTT19=
EXTT20=
EXTT21=
PLAYORDER=
